<svg width="32" height="32" viewBox="0 0 32 32" fill="none" xmlns="http://www.w3.org/2000/svg">
<g clip-path="url(#clip0_42_30)">
<rect width="32" height="32" fill="#111111"/>
<path d="M11.8379 25V6.09375H16.833C17.8786 6.09375 18.7057 6.3265 19.3145 6.79199C19.9303 7.25749 20.3708 7.91992 20.6357 8.7793C20.9007 9.63867 21.0332 10.6628 21.0332 11.8516C21.0332 12.9974 20.9222 13.9964 20.7002 14.8486C20.4782 15.6937 20.0807 16.349 19.5078 16.8145C18.9421 17.2799 18.1364 17.5127 17.0908 17.5127H15.5547V25H11.8379ZM15.5547 14.1182H15.7695C16.4714 14.1182 16.901 13.9212 17.0586 13.5273C17.2161 13.1335 17.2949 12.5534 17.2949 11.7871C17.2949 11.071 17.2161 10.5195 17.0586 10.1328C16.9082 9.73893 16.5465 9.54199 15.9736 9.54199H15.5547V14.1182Z" fill="#FAFAFA"/>
</g>
<defs>
<clipPath id="clip0_42_30">
<rect width="32" height="32" fill="white"/>
</clipPath>
</defs>
</svg>
