<svg width="147" height="56" viewBox="0 0 147 56" fill="none" xmlns="http://www.w3.org/2000/svg">
<g clip-path="url(#clip0_42_24)">
<path d="M2.05664 51V4.59375H14.3174C16.8838 4.59375 18.9141 5.16504 20.4082 6.30762C21.9199 7.4502 23.001 9.07617 23.6514 11.1855C24.3018 13.2949 24.627 15.8086 24.627 18.7266C24.627 21.5391 24.3545 23.9912 23.8096 26.083C23.2646 28.1572 22.2891 29.7656 20.8828 30.9082C19.4941 32.0508 17.5166 32.6221 14.9502 32.6221H11.1797V51H2.05664ZM11.1797 24.29H11.707C13.4297 24.29 14.4844 23.8066 14.8711 22.8398C15.2578 21.873 15.4512 20.4492 15.4512 18.5684C15.4512 16.8105 15.2578 15.457 14.8711 14.5078C14.502 13.541 13.6143 13.0576 12.208 13.0576H11.1797V24.29ZM27.1582 51V4.59375H36.123V51H27.1582ZM38.4697 51L43.4531 26.3994L39.498 4.56738H48.5684L50.9678 20.5195L53.1035 4.56738H62.2002L58.2451 26.3994L63.2021 51H53.8154L50.8887 32.8594L47.8828 51H38.4697ZM64.7051 51L69.1875 4.59375H84.9287L89.332 51H80.5518L79.8926 43.5117H74.3027L73.7227 51H64.7051ZM74.9619 36.1025H79.1807L77.1504 12.5039H76.7285L74.9619 36.1025ZM90.9668 51V42.5625L101.593 13.1367H91.9951V4.59375H111.375V12.7148L100.564 42.457H110.927V51H90.9668ZM114.328 51V4.59375H132.891V13.5586H123.768V22.6025H132.521V31.3301H123.768V41.9561H133.497V51H114.328ZM135.976 50.9736V43.1162H145.415V50.9736H135.976Z" fill="#FAFAFA"/>
</g>
<defs>
<clipPath id="clip0_42_24">
<rect width="147" height="56" fill="white"/>
</clipPath>
</defs>
</svg>
