<svg width="256" height="256" viewBox="0 0 256 256" fill="none" xmlns="http://www.w3.org/2000/svg">
<g clip-path="url(#clip0_42_27)">
<rect width="256" height="256" fill="#111111"/>
<path d="M91.8555 204V49.3125H132.725C141.279 49.3125 148.047 51.2168 153.027 55.0254C158.066 58.834 161.67 64.2539 163.838 71.2852C166.006 78.3164 167.09 86.6953 167.09 96.4219C167.09 105.797 166.182 113.971 164.365 120.943C162.549 127.857 159.297 133.219 154.609 137.027C149.98 140.836 143.389 142.74 134.834 142.74H122.266V204H91.8555ZM122.266 114.967H124.023C129.766 114.967 133.281 113.355 134.57 110.133C135.859 106.91 136.504 102.164 136.504 95.8945C136.504 90.0352 135.859 85.5234 134.57 82.3594C133.34 79.1367 130.381 77.5254 125.693 77.5254H122.266V114.967Z" fill="#FAFAFA"/>
</g>
<defs>
<clipPath id="clip0_42_27">
<rect width="256" height="256" fill="white"/>
</clipPath>
</defs>
</svg>
